<svg width="30" height="30" viewBox="0 0 30 30" fill="none" xmlns="http://www.w3.org/2000/svg">
<path d="M14.75 13.625C11.9125 12.8875 11 12.125 11 10.9375C11 9.575 12.2625 8.625 14.375 8.625C16.6 8.625 17.425 9.6875 17.5 11.25H20.2625C20.175 9.1 18.8625 7.125 16.25 6.4875V3.75H12.5V6.45C10.075 6.975 8.12502 8.55 8.12502 10.9625C8.12502 13.85 10.5125 15.2875 14 16.125C17.125 16.875 17.75 17.975 17.75 19.1375C17.75 20 17.1375 21.375 14.375 21.375C11.8 21.375 10.7875 20.225 10.65 18.75H7.90002C8.05002 21.4875 10.1 23.025 12.5 23.5375V26.25H16.25V23.5625C18.6875 23.1 20.625 21.6875 20.625 19.125C20.625 15.575 17.5875 14.3625 14.75 13.625Z" fill="#565656"/>
</svg>
