<?xml version="1.0" encoding="UTF-8"?>
<svg width="21px" height="26px" viewBox="0 0 21 26" version="1.1" xmlns="http://www.w3.org/2000/svg" xmlns:xlink="http://www.w3.org/1999/xlink">
    <!-- Generator: Sketch 58 (84663) - https://sketch.com -->
    <title>logos-apple</title>
    <desc>Created with Sketch.</desc>
    <g id="Dashboard" stroke="none" stroke-width="1" fill="none" fill-rule="evenodd">
        <g id="Desktop-HD" transform="translate(-265.000000, -685.000000)" fill-rule="nonzero">
            <g id="logos-apple" transform="translate(265.000000, 685.000000)">
                <g id="Icon" fill="#000000">
                    <path d="M17.5385273,13.7016797 C17.5747852,17.6047266 20.9625117,18.9035273 21,18.9200977 C20.9712891,19.0116445 20.4586758,20.7709688 19.2152461,22.588207 C18.1403086,24.1593516 17.0246016,25.7246719 15.267082,25.7570742 C13.5403242,25.7889023 12.9849727,24.7330781 11.0106445,24.7330781 C9.03689062,24.7330781 8.41993359,25.7246719 6.78521484,25.7889023 C5.08880859,25.8531328 3.79698047,24.0900352 2.71318359,22.5246328 C0.498339844,19.322707 -1.19421094,13.4765859 1.07846484,9.53039062 C2.20746094,7.57066406 4.22518359,6.32977734 6.41508984,6.29794922 C8.08089844,6.26620312 9.65327344,7.41866016 10.6716094,7.41866016 C11.6892891,7.41866016 13.600043,6.03274219 15.6087422,6.23626172 C16.4495625,6.27128906 18.8100938,6.57587109 20.3257852,8.79448828 C20.2035586,8.87020312 17.5092422,10.4387227 17.5385273,13.7017617 M14.293125,4.11788672 C15.1938281,3.02769141 15.799957,1.51011328 15.634582,0 C14.3363555,0.052171875 12.7666055,0.865101562 11.8353867,1.95464062 C11.0008828,2.91957422 10.2700664,4.46389453 10.4672695,5.94406641 C11.9143008,6.05603906 13.3925039,5.20873828 14.293207,4.11788672" id="Icon-Shape"></path>
                </g>
                <rect id="ViewBox" x="0" y="0" width="21" height="25.8398438"></rect>
            </g>
        </g>
    </g>
</svg>