<?xml version="1.0" encoding="UTF-8"?>
<svg width="24px" height="20px" viewBox="0 0 24 20" version="1.1" xmlns="http://www.w3.org/2000/svg" xmlns:xlink="http://www.w3.org/1999/xlink">
    <!-- Generator: Sketch 58 (84663) - https://sketch.com -->
    <title>check</title>
    <desc>Created with Sketch.</desc>
    <g id="Dashboard" stroke="none" stroke-width="1" fill="none" fill-rule="evenodd" opacity="0.347014925">
        <g id="Desktop-HD" transform="translate(-254.000000, -475.000000)" fill="#000000">
            <g id="Icons" transform="translate(254.000000, 475.000000)">
                <g id="check">
                    <g id="Layer_1">
                        <g>
                            <g id="Group">
                                <path d="M14.6066216,8.84752252 C14.6066216,8.63536036 14.4344144,8.46315315 14.2222523,8.46315315 L8.07207207,8.46315315 C7.85990991,8.46315315 7.6877027,8.63536036 7.6877027,8.84752252 C7.6877027,9.05968468 7.85990991,9.23189189 8.07207207,9.23189189 L14.2222072,9.23189189 C14.4344144,9.23189189 14.6066216,9.05968468 14.6066216,8.84752252 L14.6066216,8.84752252 Z" id="Shape"></path>
                                <path d="M7.6877027,3.46612613 C7.6877027,3.25396396 7.5154955,3.08175676 7.30333333,3.08175676 L3.45945946,3.08175676 C3.2472973,3.08175676 3.07509009,3.25396396 3.07509009,3.46612613 C3.07509009,3.67828829 3.2472973,3.8504955 3.45945946,3.8504955 L7.30328829,3.8504955 C7.5154955,3.85054054 7.6877027,3.67833333 7.6877027,3.46612613 L7.6877027,3.46612613 Z" id="Shape"></path>
                                <path d="M4.61261261,8.07873874 C5.03657658,8.07873874 5.3813964,8.42351351 5.3813964,8.84752252 C5.3813964,9.05968468 5.5536036,9.23189189 5.76576577,9.23189189 C5.97792793,9.23189189 6.15013514,9.05968468 6.15013514,8.84752252 C6.15013514,8.13333333 5.65810811,7.5363964 4.99698198,7.36454955 L4.99698198,7.30995495 C4.99698198,7.09779279 4.82477477,6.92558559 4.61261261,6.92558559 C4.40045045,6.92558559 4.22824324,7.09779279 4.22824324,7.30995495 L4.22824324,7.36454955 C3.56711712,7.53635135 3.07509009,8.13333333 3.07509009,8.84752252 C3.07509009,9.6954955 3.76468468,10.385045 4.61261261,10.385045 C5.03657658,10.385045 5.3813964,10.7298198 5.3813964,11.1538288 C5.3813964,11.5777928 5.03662162,11.9226126 4.61261261,11.9226126 C4.18864865,11.9226126 3.84382883,11.5778378 3.84382883,11.1538288 C3.84382883,10.9416667 3.67162162,10.7694595 3.45945946,10.7694595 C3.2472973,10.7694595 3.07509009,10.9416667 3.07509009,11.1538288 C3.07509009,11.868018 3.56711712,12.464955 4.22824324,12.6368018 L4.22824324,12.6913964 C4.22824324,12.9035586 4.40045045,13.0757658 4.61261261,13.0757658 C4.82477477,13.0757658 4.99698198,12.9035586 4.99698198,12.6913964 L4.99698198,12.6368018 C5.65810811,12.465 6.15013514,11.868018 6.15013514,11.1538288 C6.15013514,10.3058559 5.46054054,9.61630631 4.61261261,9.61630631 C4.18864865,9.61630631 3.84382883,9.27153153 3.84382883,8.84752252 C3.84382883,8.42355856 4.18864865,8.07873874 4.61261261,8.07873874 L4.61261261,8.07873874 Z" id="Shape"></path>
                                <path d="M8.07207207,10.7694595 C7.85990991,10.7694595 7.6877027,10.9416667 7.6877027,11.1538288 C7.6877027,11.365991 7.85990991,11.5381982 8.07207207,11.5381982 L10.3783784,11.5381982 C10.5905405,11.5381982 10.7627477,11.365991 10.7627477,11.1538288 C10.7627477,10.9416667 10.5905405,10.7694595 10.3783784,10.7694595 L8.07207207,10.7694595 L8.07207207,10.7694595 Z" id="Shape"></path>
                                <path d="M13.8378378,16.1508108 L1.92193694,16.1508108 C1.28617117,16.1508108 0.768783784,15.6334234 0.768783784,14.9976577 L0.768783784,1.9286036 C0.768783784,1.29283784 1.28617117,0.77545045 1.92193694,0.77545045 L21.1411712,0.77545045 C21.7769369,0.77545045 22.2943243,1.29283784 22.2943243,1.9286036 L22.2943243,11.1538288 C22.2943243,11.365991 22.4665315,11.5381982 22.6786937,11.5381982 C22.8908559,11.5381982 23.0630631,11.365991 23.0630631,11.1538288 L23.0630631,1.9286036 C23.0630631,0.868873874 22.2009009,0.00666666667 21.1411261,0.00666666667 L1.92193694,0.00666666667 C0.862162162,0.00666666667 0,0.868873874 0,1.9286036 L0,14.9976577 C0,16.0573874 0.862162162,16.9195946 1.92193694,16.9195946 L13.8378378,16.9195946 C14.05,16.9195946 14.2222072,16.7473874 14.2222072,16.5352252 C14.2222072,16.3230631 14.05,16.1508108 13.8378378,16.1508108 L13.8378378,16.1508108 Z" id="Shape"></path>
                                <path d="M18.8348198,3.08175676 C18.6226577,3.08175676 18.4504505,3.25396396 18.4504505,3.46612613 C18.4504505,3.67828829 18.6226577,3.8504955 18.8348198,3.8504955 L19.6036036,3.8504955 C19.8157658,3.8504955 19.987973,3.67828829 19.987973,3.46612613 C19.987973,3.25396396 19.8157658,3.08175676 19.6036036,3.08175676 L18.8348198,3.08175676 L18.8348198,3.08175676 Z" id="Shape"></path>
                                <path d="M22.6048649,12.7647748 L21.8360811,11.995991 C21.2452703,11.4051802 20.345045,11.4063514 19.755045,11.995991 L14.7188288,17.0322072 C14.6469369,17.1040991 14.6065766,17.2021171 14.6065766,17.303964 L14.6065766,19.6102703 C14.6065766,19.8224324 14.7783784,19.9946396 14.9909459,19.9946396 L17.2972973,19.9946396 C17.3991441,19.9946396 17.4968018,19.9542793 17.5690541,19.882027 L22.6048649,14.8458108 C23.2175676,14.2335135 23.2175676,13.3774775 22.6048649,12.7647748 L22.6048649,12.7647748 Z M19.2580631,13.5804505 L19.8677027,14.1896847 L16.5285586,17.5292342 L15.9189189,16.9195946 L19.2580631,13.5804505 L19.2580631,13.5804505 Z M15.3753604,19.2259009 L15.3753604,17.4631081 L17.1377477,19.2259009 L15.3753604,19.2259009 L15.3753604,19.2259009 Z M17.6816667,18.6823874 L17.0720721,18.0727477 L20.4112162,14.7336036 L21.0208559,15.3428378 L17.6816667,18.6823874 L17.6816667,18.6823874 Z M22.0613514,14.3022973 L21.5643243,14.7993243 L19.8015315,13.0365315 L20.2985586,12.5395045 C20.6026126,12.2362162 20.9877477,12.2346847 21.2925676,12.5395045 L22.0613514,13.3082883 C22.3727027,13.6196396 22.3727027,13.9913514 22.0613514,14.3022973 L22.0613514,14.3022973 Z" id="Shape"></path>
                                <path d="M14.990991,3.85054054 C15.2031532,3.85054054 15.3753604,3.67833333 15.3753604,3.46617117 C15.3753604,3.25400901 15.2031532,3.0818018 14.990991,3.0818018 L14.2222072,3.0818018 C14.010045,3.0818018 13.8378378,3.25400901 13.8378378,3.46617117 C13.8378378,3.67833333 14.010045,3.85054054 14.2222072,3.85054054 L14.990991,3.85054054 L14.990991,3.85054054 Z" id="Shape"></path>
                                <path d="M17.2972973,3.85054054 C17.5094595,3.85054054 17.6816667,3.67833333 17.6816667,3.46617117 C17.6816667,3.25400901 17.5094595,3.0818018 17.2972973,3.0818018 L16.5285135,3.0818018 C16.3163514,3.0818018 16.1441441,3.25400901 16.1441441,3.46617117 C16.1441441,3.67833333 16.3163514,3.85054054 16.5285135,3.85054054 L17.2972973,3.85054054 L17.2972973,3.85054054 Z" id="Shape"></path>
                                <path d="M18.4504505,8.84752252 C18.4504505,8.63536036 18.2782432,8.46315315 18.0660811,8.46315315 L15.7597748,8.46315315 C15.5476126,8.46315315 15.3754054,8.63536036 15.3754054,8.84752252 C15.3754054,9.05968468 15.5476126,9.23189189 15.7597748,9.23189189 L18.0660811,9.23189189 C18.2782432,9.23189189 18.4504505,9.05968468 18.4504505,8.84752252 L18.4504505,8.84752252 Z" id="Shape"></path>
                                <path d="M11.9159009,11.5381982 L16.5285135,11.5381982 C16.7406757,11.5381982 16.9128829,11.365991 16.9128829,11.1538288 C16.9128829,10.9416667 16.7406757,10.7694595 16.5285135,10.7694595 L11.9159009,10.7694595 C11.7037387,10.7694595 11.5315315,10.9416667 11.5315315,11.1538288 C11.5315315,11.365991 11.7037387,11.5381982 11.9159009,11.5381982 L11.9159009,11.5381982 Z" id="Shape"></path>
                            </g>
                        </g>
                    </g>
                </g>
            </g>
        </g>
    </g>
</svg>