<?xml version="1.0" encoding="UTF-8"?>
<svg width="25px" height="13px" viewBox="0 0 25 13" version="1.1" xmlns="http://www.w3.org/2000/svg" xmlns:xlink="http://www.w3.org/1999/xlink">
    <!-- Generator: Sketch 58 (84663) - https://sketch.com -->
    <title>map-finance</title>
    <desc>Created with Sketch.</desc>
    <g id="Dashboard" stroke="none" stroke-width="1" fill="none" fill-rule="evenodd">
        <g id="Desktop-HD" transform="translate(-265.000000, -590.000000)" fill-rule="nonzero">
            <g id="map-finance" transform="translate(265.000000, 584.000000)">
                <g id="Icon" fill="#565656">
                    <path d="M21.5,6 L0,6 L0,19 L25,19 L25,6 L21.5,6 Z M24,15.6355 C22.8466931,15.9458254 21.9458254,16.8466931 21.6355,18 L3.3645,18 C3.05389871,16.8468526 2.15314737,15.9461013 1,15.6355 L1,9.3645 C2.15314737,9.05389871 3.05389871,8.15314737 3.3645,7 L21.647,7 C21.9850369,8.13053603 22.869464,9.0149631 24,9.353 L24,15.6355 Z M13.558,13.5275 C13.443,13.4575 13.5,13.393 13,13.3335 L13,14.782 L13.274,14.731 C13.645,14.601 13.831,14.3585 13.831,14.0055 C13.831,13.801 13.7395,13.64 13.558,13.5275 L13.558,13.5275 Z M11.3075,11.164 C11.3075,11.3865 11.409,11.554 11.611,11.664 C11.6885,11.7075 11.819,11.756 11.9995,11.8085 L11.9995,10.438 C11.8631317,10.4676836 11.733005,10.5209865 11.615,10.5955 C11.41,10.7315 11.3075,10.9215 11.3075,11.164 L11.3075,11.164 Z M12.5,7.5 C10.0145,7.5 8,9.739 8,12.5 C8,15.2605 10.0145,17.5 12.5,17.5 C14.9855,17.5 17,15.2605 17,12.5 C17,9.739 14.9855,7.5 12.5,7.5 Z M14.427,15.327 C14.0875,15.617 13.5,15.7945 13,15.8615 L13,16.5 L12,16.5 L12,15.85 C11.478,15.779 11.0455,15.7 10.706,15.4325 C10.2672158,15.0854689 10.0079327,14.5593739 10,14 L11.244,14 C11.2845,14 11.3635,14.4005 11.4815,14.542 C11.604,14.6875 11.778,14.7045 12,14.766 L12,13.0635 C11.3915,12.923 10.9675,12.7715 10.732,12.6085 C10.3115,12.321 10.1015,11.8705 10.1015,11.2585 C10.1015,10.7 10.307,10.236 10.7185,9.8665 C11.0325,9.584 11.4605,9.4105 12,9.3435 L12,8.5 L13,8.5 L13,9.37 C13.5,9.4445 13.838,9.6765 14.15,9.908 C14.6195,10.2565 14.95,10.5 14.9725,11.5 L13.7195,11.5 C13.696,11 13.445,10.784 13.1335,10.626 C13.0862109,10.5952561 13.0415573,10.5606371 13,10.5225 L13,12.094 L13.451,12.181 C13.9305,12.294 14.374,12.445 14.613,12.6335 C14.985,12.9275 15.1290028,13.352 15.1290028,13.907 C15.13,14.477 14.867,14.95 14.427,15.327 L14.427,15.327 Z" id="Icon-Shape"></path>
                </g>
                <rect id="ViewBox" x="0" y="0" width="25" height="25"></rect>
            </g>
        </g>
    </g>
</svg>