<?xml version="1.0" encoding="UTF-8"?>
<svg width="26px" height="26px" viewBox="0 0 26 26" version="1.1" xmlns="http://www.w3.org/2000/svg" xmlns:xlink="http://www.w3.org/1999/xlink">
    <!-- Generator: Sketch 58 (84663) - https://sketch.com -->
    <title>clarity-note-edit-line</title>
    <desc>Created with Sketch.</desc>
    <g id="Dashboard" stroke="none" stroke-width="1" fill="none" fill-rule="evenodd">
        <g id="Account-transaction" transform="translate(-1153.000000, -466.000000)" fill-rule="nonzero">
            <g id="clarity-note-edit-line" transform="translate(1150.000000, 465.000000)">
                <g id="Icon" fill="#565656">
                    <path d="M23.3333333,25 L5,25 L5,6.66666667 L16.0166667,6.66666667 L17.6833333,5 L5,5 C4.07952542,5 3.33333333,5.74619208 3.33333333,6.66666667 L3.33333333,25 C3.33333333,25.9204746 4.07952542,26.6666667 5,26.6666667 L23.3333333,26.6666667 C24.2538079,26.6666667 25,25.9204746 25,25 L25,12.5 L23.3333333,14.1666667 L23.3333333,25 Z" id="Icon-Path"></path>
                    <path d="M27.9416667,4.86666667 L25.1333333,2.05833333 C24.8816172,1.80592679 24.5398022,1.66406808 24.1833333,1.66406808 C23.8268644,1.66406808 23.4850495,1.80592679 23.2333333,2.05833333 L11.8083333,13.55 L10.8833333,17.5583333 C10.803539,17.9517642 10.9041094,18.3602541 11.1574374,18.6716701 C11.4107654,18.983086 11.7902303,19.1647032 12.1916667,19.1666667 C12.2941347,19.1779514 12.397532,19.1779514 12.5,19.1666667 L16.5416667,18.275 L27.9416667,6.76666667 C28.1940732,6.51495054 28.3359319,6.17313556 28.3359319,5.81666667 C28.3359319,5.46019777 28.1940732,5.11838279 27.9416667,4.86666667 Z M15.675,16.7333333 L12.625,17.4083333 L13.3333333,14.3833333 L21.9333333,5.725 L24.2833333,8.075 L15.675,16.7333333 Z M25.225,7.13333333 L22.875,4.78333333 L24.1666667,3.46666667 L26.5333333,5.83333333 L25.225,7.13333333 Z" id="Icon-Shape"></path>
                </g>
                <rect id="ViewBox" x="0" y="0" width="30" height="30"></rect>
            </g>
        </g>
    </g>
</svg>