<?xml version="1.0" encoding="UTF-8"?>
<svg width="25px" height="26px" viewBox="0 0 25 26" version="1.1" xmlns="http://www.w3.org/2000/svg" xmlns:xlink="http://www.w3.org/1999/xlink">
    <!-- Generator: Sketch 58 (84663) - https://sketch.com -->
    <title>logos-google-icon</title>
    <desc>Created with Sketch.</desc>
    <g id="Dashboard" stroke="none" stroke-width="1" fill="none" fill-rule="evenodd">
        <g id="Desktop-HD" transform="translate(-265.000000, -632.000000)" fill-rule="nonzero">
            <g id="logos-google-icon" transform="translate(265.000000, 632.000000)">
                <g id="Icon">
                    <path d="M24.9880859,13.1446442 C24.9880859,12.0873676 24.9030273,11.3158335 24.7189453,10.515735 L12.7490234,10.515735 L12.7490234,15.2877616 L19.7750977,15.2877616 C19.6334961,16.4736764 18.8685547,18.2596405 17.1686523,19.459739 L17.1448242,19.6195026 L20.9294922,22.5767052 L21.1916992,22.6031027 C23.5998047,20.3599114 24.9880859,17.0594435 24.9880859,13.1446442" id="Icon-Path" fill="#4285F4"></path>
                    <path d="M12.7490234,25.7178035 C16.1912109,25.7178035 19.080957,24.5747353 21.1916992,22.6031027 L17.1686523,19.459739 C16.0920898,20.2169909 14.647168,20.7456292 12.7490234,20.7456292 C9.37763672,20.7456292 6.51621094,18.5025363 5.49619141,15.4021177 L5.34667969,15.4149224 L1.41132812,18.4867767 L1.35986328,18.6310761 C3.45634766,22.8316178 7.76269531,25.7178035 12.7490234,25.7178035" id="Icon-Path" fill="#34A853"></path>
                    <path d="M5.49619141,15.4021177 C5.22705078,14.6020192 5.07128906,13.7446934 5.07128906,12.8589017 C5.07128906,11.9730116 5.22705078,11.1157843 5.48203125,10.3156858 L5.47490234,10.1452844 L1.49023438,7.02408274 L1.35986328,7.08662891 C0.495800781,8.82974637 0,10.7871953 0,12.8589017 C0,14.9306082 0.495800781,16.8879586 1.35986328,18.6310761 L5.49619141,15.4021177" id="Icon-Path" fill="#FBBC05"></path>
                    <path d="M12.7490234,4.97207584 C15.1429687,4.97207584 16.7578125,6.01507018 17.6786133,6.88667816 L21.2766602,3.34331445 C19.0668945,1.27160798 16.1912109,0 12.7490234,0 C7.76269531,0 3.45634766,2.88608717 1.35986328,7.08662891 L5.48203125,10.3156858 C6.51621094,7.21526718 9.37763672,4.97207584 12.7490234,4.97207584" id="Icon-Path" fill="#EB4335"></path>
                </g>
                <rect id="ViewBox" x="0" y="0" width="25" height="25.8064516"></rect>
            </g>
        </g>
    </g>
</svg>