<?xml version="1.0" encoding="UTF-8"?>
<svg width="26px" height="26px" viewBox="0 0 26 26" version="1.1" xmlns="http://www.w3.org/2000/svg" xmlns:xlink="http://www.w3.org/1999/xlink">
    <!-- Generator: Sketch 58 (84663) - https://sketch.com -->
    <title>ion-information-circle</title>
    <desc>Created with Sketch.</desc>
    <g id="Dashboard" stroke="none" stroke-width="1" fill="none" fill-rule="evenodd">
        <g id="iPhone-XR" transform="translate(-358.000000, -853.000000)" fill-rule="nonzero">
            <g id="nav_icons" transform="translate(27.000000, 850.000000)">
                <g id="ion-information-circle" transform="translate(328.000000, 0.000000)">
                    <g id="Icon" fill="#A8A5EB">
                        <path d="M16,3.5 C9.1075,3.5 3.5,9.1075 3.5,16 C3.5,22.8925 9.1075,28.5 16,28.5 C22.8925,28.5 28.5,22.8925 28.5,16 C28.5,9.1075 22.8925,3.5 16,3.5 Z M16,8.625 C16.8974627,8.625 17.625,9.35253728 17.625,10.25 C17.625,11.1474627 16.8974627,11.875 16,11.875 C15.1025373,11.875 14.375,11.1474627 14.375,10.25 C14.375,9.35253728 15.1025373,8.625 16,8.625 L16,8.625 Z M19,22.75 L13.5,22.75 C12.9477153,22.75 12.5,22.3022847 12.5,21.75 C12.5,21.1977153 12.9477153,20.75 13.5,20.75 L15.25,20.75 L15.25,15.25 L14.25,15.25 C13.6977153,15.25 13.25,14.8022847 13.25,14.25 C13.25,13.6977153 13.6977153,13.25 14.25,13.25 L16.25,13.25 C16.8022847,13.25 17.25,13.6977153 17.25,14.25 L17.25,20.75 L19,20.75 C19.5522847,20.75 20,21.1977153 20,21.75 C20,22.3022847 19.5522847,22.75 19,22.75 Z" id="Icon-Shape"></path>
                    </g>
                    <rect id="ViewBox" x="0" y="0" width="32" height="32"></rect>
                </g>
            </g>
        </g>
    </g>
</svg>