<?xml version="1.0" encoding="UTF-8"?>
<svg width="26px" height="26px" viewBox="0 0 26 26" version="1.1" xmlns="http://www.w3.org/2000/svg" xmlns:xlink="http://www.w3.org/1999/xlink">
    <!-- Generator: Sketch 58 (84663) - https://sketch.com -->
    <title>carbon-new-tab</title>
    <desc>Created with Sketch.</desc>
    <g id="Dashboard" stroke="none" stroke-width="1" fill="none" fill-rule="evenodd">
        <g id="Desktop-HD" transform="translate(-1094.000000, -332.000000)" fill-rule="nonzero">
            <g id="carbon-new-tab" transform="translate(1090.000000, 330.000000)">
                <g id="Icon" fill="#565656">
                    <path d="M26,26 L6,26 L6,6 L15,6 L15,4 L6,4 C4.8954305,4 4,4.8954305 4,6 L4,26 C4,27.1045695 4.8954305,28 6,28 L26,28 C27.1045695,28 28,27.1045695 28,26 L28,17 L26,17 L26,26 Z" id="Icon-Path"></path>
                    <polygon id="Icon-Path" points="26 6 26 2 24 2 24 6 20 6 20 8 24 8 24 12 26 12 26 8 30 8 30 6"></polygon>
                </g>
                <rect id="ViewBox" x="0" y="0" width="32" height="32"></rect>
            </g>
        </g>
    </g>
</svg>