<?xml version="1.0" encoding="UTF-8"?>
<svg width="22px" height="26px" viewBox="0 0 22 26" version="1.1" xmlns="http://www.w3.org/2000/svg" xmlns:xlink="http://www.w3.org/1999/xlink">
    <!-- Generator: Sketch 58 (84663) - https://sketch.com -->
    <title>logos-paypal</title>
    <desc>Created with Sketch.</desc>
    <g id="Dashboard" stroke="none" stroke-width="1" fill="none" fill-rule="evenodd">
        <g id="Desktop-HD" transform="translate(-265.000000, -750.000000)" fill-rule="nonzero">
            <g id="logos-paypal" transform="translate(265.000000, 750.000000)">
                <g id="Icon">
                    <path d="M18.662875,2.02013281 C17.4654219,0.655273438 15.3008281,0.070125 12.5316641,0.070125 L4.49478906,0.070125 C3.92878361,0.070125 3.4468002,0.481692092 3.35809375,1.04070313 L0.0116875,22.2644297 C-0.054828125,22.6829453 0.269242188,23.0619297 0.693429688,23.0619297 L5.65511719,23.0619297 L6.90121094,15.1581719 L6.86253906,15.4056719 C6.9513125,14.8469922 7.429125,14.4349219 7.9949375,14.4349219 L10.3527188,14.4349219 C14.9845781,14.4349219 18.6113984,12.5535781 19.6708359,7.11124219 C19.7022891,6.95028125 19.7295313,6.79361719 19.7530781,6.6405625 C19.6193594,6.56975 19.6193594,6.56975 19.7530781,6.6405625 C20.0685547,4.62902344 19.7509297,3.25978125 18.662875,2.02013281" id="Icon-Path" fill="#27346A"></path>
                    <path d="M8.79974219,5.9159375 C8.93538703,5.8513488 9.08374718,5.81787749 9.23398438,5.81796875 L15.53475,5.81796875 C16.2808594,5.81796875 16.9767813,5.86652344 17.6127188,5.968875 C17.7906699,5.99724846 17.9677,6.03112406 18.1435547,6.07045313 C18.3928022,6.1254531 18.6391718,6.19276737 18.8817578,6.27214844 C19.1943984,6.3765625 19.4855547,6.49816406 19.7531641,6.6405625 C20.0685547,4.62825 19.7509297,3.25978125 18.662875,2.02013281 C17.4647344,0.655273438 15.3008281,0.070125 12.5316641,0.070125 L4.49410156,0.070125 C3.92820312,0.070125 3.44678125,0.482109375 3.35809375,1.04070313 L0.0116875,22.2636563 C-0.054828125,22.6828594 0.269242187,23.0613281 0.692742187,23.0613281 L5.65511719,23.0613281 L8.240375,6.66703125 C8.29197647,6.3399167 8.50112063,6.05908709 8.79974219,5.9159375 Z" id="Icon-Path" fill="#27346A"></path>
                    <path d="M19.6708359,7.11124219 C18.6113984,12.5528047 14.9846641,14.4349219 10.3527188,14.4349219 L7.99425,14.4349219 C7.4284375,14.4349219 6.95053906,14.8469922 6.862625,15.4056719 L5.31239844,25.2330547 C5.25447656,25.5993203 5.53772656,25.9312109 5.90828906,25.9312109 L10.0908672,25.9312109 C10.5858318,25.9312109 11.0072111,25.5710316 11.0845625,25.0821484 L11.1252969,24.8690234 L11.9136016,19.8729609 L11.9643906,19.5968438 C12.0417369,19.1079927 12.4630679,18.7479555 12.958,18.7477813 L13.5839688,18.7477813 C17.6356641,18.7477813 20.8082188,17.1017344 21.7353125,12.3411406 C22.1222891,10.3516875 21.9220547,8.6906875 20.8983672,7.524 C20.587875,7.170625 20.2022734,6.87878125 19.7530781,6.6405625 C19.7287578,6.79439063 19.702375,6.95028125 19.6708359,7.11124219 L19.6708359,7.11124219 Z" id="Icon-Path" fill="#2790C3"></path>
                    <path d="M18.6443125,6.1985 C18.4791232,6.15026289 18.3123687,6.10755679 18.1443281,6.07045313 C17.9683812,6.03176727 17.7913635,5.9981233 17.6134922,5.9695625 C16.9768672,5.86652344 16.2814609,5.81788025 15.5346641,5.81788025 L9.23467187,5.81788025 C9.08432061,5.81754178 8.93584975,5.85130252 8.80042969,5.916625 C8.50144348,6.05934987 8.29211483,6.34038403 8.24097656,6.66771875 L6.90189844,15.1581719 L6.86322656,15.4056719 C6.9513125,14.8469922 7.429125,14.4349219 7.99502344,14.4349219 L10.3534922,14.4349219 C14.9853516,14.4349219 18.6120859,12.5535781 19.6715234,7.11124219 C19.7030625,6.95028125 19.7295313,6.79430469 19.7538516,6.6405625 C19.4855547,6.4989375 19.1951719,6.3765625 18.8824453,6.27283594 C18.8035342,6.24667627 18.7241732,6.22189386 18.6443984,6.1985" id="Icon-Path" fill="#1F264F"></path>
                </g>
                <rect id="ViewBox" x="0" y="0" width="22" height="25.953125"></rect>
            </g>
        </g>
    </g>
</svg>