<?xml version="1.0" encoding="UTF-8"?>
<svg width="28px" height="28px" viewBox="0 0 28 28" version="1.1" xmlns="http://www.w3.org/2000/svg" xmlns:xlink="http://www.w3.org/1999/xlink">
    <!-- Generator: Sketch 58 (84663) - https://sketch.com -->
    <title>ion-pie-chart</title>
    <desc>Created with Sketch.</desc>
    <g id="Dashboard" stroke="none" stroke-width="1" fill="none" fill-rule="evenodd">
        <g id="iPhone-XR" transform="translate(-111.000000, -852.000000)" fill-rule="nonzero">
            <g id="nav_icons" transform="translate(27.000000, 850.000000)">
                <g id="ion-pie-chart" transform="translate(82.000000, 0.000000)">
                    <g id="Icon" fill="#A8A5EB">
                        <path d="M4.13125,22.3125001 C3.73692456,22.3125001 3.3793055,22.0811298 3.218125,21.72125 C1.27832653,17.3889828 1.66581835,12.368901 4.24747887,8.38563778 C6.8291394,4.40237456 11.2532796,1.9985536 16,1.99999935 C16.5522847,1.99999935 17,2.44771525 17,2.99999935 L17,15.9999993 C17,16.3944723 16.768249,16.752131 16.408125,16.913125 L4.539375,22.2225 C4.41123289,22.2810366 4.27212695,22.3117123 4.13125,22.3125001 Z" id="Icon-Path"></path>
                        <path d="M19.599375,4.26125 C19.4525549,4.231475 19.30012,4.26910125 19.184018,4.36377457 C19.0679161,4.45844789 19.0003819,4.60019161 19,4.75 L19,16 C18.998983,17.1827131 18.3041636,18.25479 17.225,18.73875 L6.445625,23.5625 C6.31036661,23.6228804 6.20884195,23.740125 6.16842023,23.8826266 C6.12799852,24.0251282 6.15284078,24.1782178 6.23625,24.300625 C7.06119867,25.5139061 8.08519046,26.5791027 9.265,27.45125 C11.5003056,29.1141037 14.2140344,30.008301 17,30.0000573 C24.168125,30.0000573 30,24.168125 30,17 C30,10.721875 25.52625,5.46875 19.599375,4.26125 L19.599375,4.26125 Z" id="Icon-Path"></path>
                    </g>
                    <rect id="ViewBox" x="0" y="0" width="32" height="32"></rect>
                </g>
            </g>
        </g>
    </g>
</svg>