<svg width="27" height="27" viewBox="0 0 27 27" fill="none" xmlns="http://www.w3.org/2000/svg">
<path d="M26.125 24.8031L19.0469 17.6875C20.739 15.6458 21.5796 13.0308 21.3941 10.3855C21.2086 7.74027 20.0113 5.26813 18.0508 3.48258C16.0903 1.69704 13.5173 0.735326 10.8663 0.797203C8.21524 0.859079 5.68993 1.93979 3.81486 3.81486C1.93979 5.68993 0.859079 8.21524 0.797203 10.8663C0.735326 13.5173 1.69704 16.0903 3.48258 18.0508C5.26813 20.0113 7.74027 21.2086 10.3855 21.3941C13.0308 21.5796 15.6458 20.739 17.6875 19.0469L24.8031 26.125L26.125 24.8031ZM2.6875 11.125C2.6875 9.45622 3.18235 7.82492 4.10948 6.43738C5.0366 5.04984 6.35436 3.96838 7.89611 3.32977C9.43786 2.69115 11.1344 2.52406 12.7711 2.84962C14.4078 3.17519 15.9112 3.97878 17.0912 5.15879C18.2712 6.33879 19.0748 7.84221 19.4004 9.47893C19.7259 11.1156 19.5588 12.8121 18.9202 14.3539C18.2816 15.8956 17.2002 17.2134 15.8126 18.1405C14.4251 19.0676 12.7938 19.5625 11.125 19.5625C8.88724 19.5625 6.74112 18.6736 5.15879 17.0912C3.57645 15.5089 2.6875 13.3628 2.6875 11.125V11.125Z" fill="#565656"/>
</svg>
